<?xml version="1.0" encoding="iso-8859-1"?>
<!-- Uploaded to: SVG Repo, www.svgrepo.com, Generator: SVG Repo Mixer Tools -->
<!DOCTYPE svg PUBLIC "-//W3C//DTD SVG 1.1//EN" "http://www.w3.org/Graphics/SVG/1.1/DTD/svg11.dtd">
<svg height="800px" width="800px" version="1.1" id="Capa_1" xmlns="http://www.w3.org/2000/svg" xmlns:xlink="http://www.w3.org/1999/xlink" 
	 viewBox="0 0 306.028 306.028" xml:space="preserve">
<g>
	<path style="fill:#222220;" d="M285.498,113.47H81.32V15h179.688v76.277c0,4.142,3.357,7.5,7.5,7.5s7.5-3.358,7.5-7.5V7.5
		c0-4.142-3.357-7.5-7.5-7.5H73.82c-4.143,0-7.5,3.358-7.5,7.5v113.47c0,0.438,0.045,0.864,0.117,1.281v149.841
		c0,10.441-8.494,18.936-18.936,18.936h-0.534c-10.441,0-18.937-8.495-18.937-18.936V91.963h18.937c4.143,0,7.5-3.358,7.5-7.5
		s-3.357-7.5-7.5-7.5H20.531c-4.143,0-7.5,3.358-7.5,7.5v187.629c0,18.712,15.224,33.936,33.937,33.936h0.534h201.197
		c24.427,0,44.299-19.873,44.299-44.299V120.97C292.998,116.828,289.64,113.47,285.498,113.47z M277.998,261.729
		c0,16.155-13.144,29.299-29.299,29.299H75.649c3.653-5.412,5.788-11.929,5.788-18.936V128.47h196.561V261.729z"/>
	<path style="fill:#222220;" d="M98.011,41.633h49.663c4.143,0,7.5-3.358,7.5-7.5s-3.357-7.5-7.5-7.5H98.011
		c-4.143,0-7.5,3.358-7.5,7.5S93.869,41.633,98.011,41.633z"/>
	<path style="fill:#222220;" d="M192.257,55.205H98.011c-4.143,0-7.5,3.358-7.5,7.5s3.357,7.5,7.5,7.5h94.246
		c4.143,0,7.5-3.358,7.5-7.5S196.4,55.205,192.257,55.205z"/>
	<path style="fill:#222220;" d="M192.257,83.777H98.011c-4.143,0-7.5,3.358-7.5,7.5s3.357,7.5,7.5,7.5h94.246
		c4.143,0,7.5-3.358,7.5-7.5S196.4,83.777,192.257,83.777z"/>
	<path style="fill:#222220;" d="M220.174,55.205c-4.143,0-7.5,3.358-7.5,7.5s3.357,7.5,7.5,7.5h20.417c4.143,0,7.5-3.358,7.5-7.5
		s-3.357-7.5-7.5-7.5H220.174z"/>
</g>
</svg>