<svg width="128" height="168" viewBox="0 0 128 168" fill="none" xmlns="http://www.w3.org/2000/svg">
<path fill-rule="evenodd" clip-rule="evenodd" d="M60.155 8H68.155V0H60.155V8Z" fill="#FF4B2B"/>
<path fill-rule="evenodd" clip-rule="evenodd" d="M0 48H8V40H0V48Z" fill="#FF4B2B"/>
<path opacity="0.7" fill-rule="evenodd" clip-rule="evenodd" d="M30 68H38V60H30V68Z" fill="#FF4B2B"/>
<path opacity="0.3" fill-rule="evenodd" clip-rule="evenodd" d="M30 28H38V20H30V28Z" fill="#FF4B2B"/>
<path opacity="0.3" fill-rule="evenodd" clip-rule="evenodd" d="M30 108H38V100H30V108Z" fill="#FF4B2B"/>
<path opacity="0.7" fill-rule="evenodd" clip-rule="evenodd" d="M30 148H38V140H30V148Z" fill="#FF4B2B"/>
<path fill-rule="evenodd" clip-rule="evenodd" d="M60 88H68V80H60V88Z" fill="#FF4B2B"/>
<path fill-rule="evenodd" clip-rule="evenodd" d="M60 168H68V160H60V168Z" fill="#FF4B2B"/>
<path fill-rule="evenodd" clip-rule="evenodd" d="M0 128H8V120H0V128Z" fill="#FF4B2B"/>
<path opacity="0.7" fill-rule="evenodd" clip-rule="evenodd" d="M120 48H128V40H120V48Z" fill="#FF4B2B"/>
<path opacity="0.3" fill-rule="evenodd" clip-rule="evenodd" d="M90 68H98V60H90V68Z" fill="#FF4B2B"/>
<path fill-rule="evenodd" clip-rule="evenodd" d="M90 28H98V20H90V28Z" fill="#FF4B2B"/>
<path opacity="0.7" fill-rule="evenodd" clip-rule="evenodd" d="M90 108H98V100H90V108Z" fill="#FF4B2B"/>
<path opacity="0.3" fill-rule="evenodd" clip-rule="evenodd" d="M90 148H98V140H90V148Z" fill="#FF4B2B"/>
<path fill-rule="evenodd" clip-rule="evenodd" d="M120 128H128V120H120V128Z" fill="#FF4B2B"/>
</svg>
