<svg width="168" height="168" viewBox="0 0 168 168" fill="none" xmlns="http://www.w3.org/2000/svg">
<path fill-rule="evenodd" clip-rule="evenodd" d="M80 8H88V0H80V8Z" fill="#FF4B2B"/>
<path fill-rule="evenodd" clip-rule="evenodd" d="M80 58H88V50H80V58Z" fill="#FF4B2B"/>
<path fill-rule="evenodd" clip-rule="evenodd" d="M80 168H88V160H80V168Z" fill="#FF4B2B"/>
<path opacity="0.7" fill-rule="evenodd" clip-rule="evenodd" d="M152.684 51.2197L155.746 58.6107L163.137 55.5492L160.075 48.1582L152.684 51.2197Z" fill="#FF4B2B"/>
<path opacity="0.3" fill-rule="evenodd" clip-rule="evenodd" d="M4.86348 112.448L7.92495 119.839L15.316 116.778L12.2545 109.387L4.86348 112.448Z" fill="#FF4B2B"/>
<path fill-rule="evenodd" clip-rule="evenodd" d="M116.779 152.683L109.388 155.745L112.45 163.136L119.841 160.074L116.779 152.683Z" fill="#FF4B2B"/>
<path fill-rule="evenodd" clip-rule="evenodd" d="M55.5501 4.86287L48.1591 7.92434L51.2205 15.3154L58.6116 12.2539L55.5501 4.86287Z" fill="#FF4B2B"/>
<path fill-rule="evenodd" clip-rule="evenodd" d="M155.746 109.388L152.684 116.779L160.075 119.84L163.137 112.449L155.746 109.388Z" fill="#FF4B2B"/>
<path opacity="0.7" fill-rule="evenodd" clip-rule="evenodd" d="M7.92488 48.1592L4.86341 55.5503L12.2545 58.6117L15.3159 51.2207L7.92488 48.1592Z" fill="#FF4B2B"/>
<g opacity="0.3">
<path opacity="0.3" fill-rule="evenodd" clip-rule="evenodd" d="M109.388 12.2543L116.78 15.3158L119.841 7.92475L112.45 4.86328L109.388 12.2543Z" fill="#FF4B2B"/>
<path opacity="0.3" fill-rule="evenodd" clip-rule="evenodd" d="M48.1591 160.075L55.5501 163.136L58.6116 155.745L51.2206 152.684L48.1591 160.075Z" fill="#FF4B2B"/>
</g>
<path opacity="0.7" fill-rule="evenodd" clip-rule="evenodd" d="M80 118H88V110H80V118Z" fill="#FF4B2B"/>
<path opacity="0.3" fill-rule="evenodd" clip-rule="evenodd" d="M160 80V88H168V80H160Z" fill="#FF4B2B"/>
<path opacity="0.3" fill-rule="evenodd" clip-rule="evenodd" d="M110 80V88H118V80H110Z" fill="#FF4B2B"/>
<path fill-rule="evenodd" clip-rule="evenodd" d="M0 80L0 88H8L8 80H0Z" fill="#FF4B2B"/>
<path fill-rule="evenodd" clip-rule="evenodd" d="M50 80V88H58V80H50Z" fill="#FF4B2B"/>
<path opacity="0.7" fill-rule="evenodd" clip-rule="evenodd" d="M140.568 134.912L134.912 140.568L140.568 146.225L146.225 140.568L140.568 134.912Z" fill="#FF4B2B"/>
<path fill-rule="evenodd" clip-rule="evenodd" d="M105.213 99.556L99.5563 105.213L105.213 110.87L110.87 105.213L105.213 99.556Z" fill="#FF4B2B"/>
<path opacity="0.3" fill-rule="evenodd" clip-rule="evenodd" d="M27.4314 21.7748L21.7745 27.4316L27.4314 33.0885L33.0883 27.4316L27.4314 21.7748Z" fill="#FF4B2B"/>
<path opacity="0.7" fill-rule="evenodd" clip-rule="evenodd" d="M62.7867 57.1303L57.1299 62.7871L62.7867 68.444L68.4436 62.7871L62.7867 57.1303Z" fill="#FF4B2B"/>
<path fill-rule="evenodd" clip-rule="evenodd" d="M134.912 27.4322L140.569 33.0891L146.225 27.4322L140.569 21.7754L134.912 27.4322Z" fill="#FF4B2B"/>
<path fill-rule="evenodd" clip-rule="evenodd" d="M99.5564 62.7877L105.213 68.4446L110.87 62.7877L105.213 57.1309L99.5564 62.7877Z" fill="#FF4B2B"/>
<path fill-rule="evenodd" clip-rule="evenodd" d="M21.7747 140.569L27.4315 146.226L33.0884 140.569L27.4315 134.912L21.7747 140.569Z" fill="#FF4B2B"/>
<path fill-rule="evenodd" clip-rule="evenodd" d="M57.13 105.213L62.7869 110.87L68.4437 105.213L62.7869 99.5566L57.13 105.213Z" fill="#FF4B2B"/>
</svg>
