<svg width="158" height="128" viewBox="0 0 158 128" fill="none" xmlns="http://www.w3.org/2000/svg">
<path opacity="0.7" fill-rule="evenodd" clip-rule="evenodd" d="M150 68H158V60H150V68Z" fill="#FF4B2B"/>
<path fill-rule="evenodd" clip-rule="evenodd" d="M90 68H98V60H90V68Z" fill="#FF4B2B"/>
<path fill-rule="evenodd" clip-rule="evenodd" d="M110 48H118V40H110V48Z" fill="#FF4B2B"/>
<path opacity="0.7" fill-rule="evenodd" clip-rule="evenodd" d="M120 68H128V60H120V68Z" fill="#FF4B2B"/>
<path opacity="0.3" fill-rule="evenodd" clip-rule="evenodd" d="M130 28H138V20H130V28Z" fill="#FF4B2B"/>
<path opacity="0.7" fill-rule="evenodd" clip-rule="evenodd" d="M150 8H158V0H150V8Z" fill="#FF4B2B"/>
<path opacity="0.7" fill-rule="evenodd" clip-rule="evenodd" d="M110 88H118V80H110V88Z" fill="#FF4B2B"/>
<path fill-rule="evenodd" clip-rule="evenodd" d="M130 108H138V100H130V108Z" fill="#FF4B2B"/>
<path opacity="0.3" fill-rule="evenodd" clip-rule="evenodd" d="M150 128H158V120H150V128Z" fill="#FF4B2B"/>
<path fill-rule="evenodd" clip-rule="evenodd" d="M0 68H8V60H0V68Z" fill="#FF4B2B"/>
<path opacity="0.3" fill-rule="evenodd" clip-rule="evenodd" d="M60 68H68V60H60V68Z" fill="#FF4B2B"/>
<path opacity="0.7" fill-rule="evenodd" clip-rule="evenodd" d="M40 48H48V40H40V48Z" fill="#FF4B2B"/>
<path fill-rule="evenodd" clip-rule="evenodd" d="M30 68H38V60H30V68Z" fill="#FF4B2B"/>
<path opacity="0.3" fill-rule="evenodd" clip-rule="evenodd" d="M20 28H28V20H20V28Z" fill="#FF4B2B"/>
<path fill-rule="evenodd" clip-rule="evenodd" d="M0 8H8V0H0V8Z" fill="#FF4B2B"/>
<path fill-rule="evenodd" clip-rule="evenodd" d="M40 88H48V80H40V88Z" fill="#FF4B2B"/>
<path opacity="0.3" fill-rule="evenodd" clip-rule="evenodd" d="M20 108H28V100H20V108Z" fill="#FF4B2B"/>
<path fill-rule="evenodd" clip-rule="evenodd" d="M0 128H8V120H0V128Z" fill="#FF4B2B"/>
</svg>
