<svg width="128" height="128" viewBox="0 0 128 128" fill="none" xmlns="http://www.w3.org/2000/svg">
<path opacity="0.7" fill-rule="evenodd" clip-rule="evenodd" d="M120 128H128V120H120V128Z" fill="#FF4B2B"/>
<path fill-rule="evenodd" clip-rule="evenodd" d="M100 108H108V100H100V108Z" fill="#FF4B2B"/>
<path opacity="0.3" fill-rule="evenodd" clip-rule="evenodd" d="M80 88H88V80H80V88Z" fill="#FF4B2B"/>
<path fill-rule="evenodd" clip-rule="evenodd" d="M0 128H8V120H0V128Z" fill="#FF4B2B"/>
<path opacity="0.3" fill-rule="evenodd" clip-rule="evenodd" d="M20 108H28V100H20V108Z" fill="#FF4B2B"/>
<path fill-rule="evenodd" clip-rule="evenodd" d="M40 88H48V80H40V88Z" fill="#FF4B2B"/>
<path opacity="0.7" fill-rule="evenodd" clip-rule="evenodd" d="M60 68H68V60H60V68Z" fill="#FF4B2B"/>
<path opacity="0.3" fill-rule="evenodd" clip-rule="evenodd" d="M120 68H128V60H120V68Z" fill="#FF4B2B"/>
<path opacity="0.7" fill-rule="evenodd" clip-rule="evenodd" d="M100 48H108V40H100V48Z" fill="#FF4B2B"/>
<path opacity="0.3" fill-rule="evenodd" clip-rule="evenodd" d="M80 28H88V20H80V28Z" fill="#FF4B2B"/>
<path opacity="0.7" fill-rule="evenodd" clip-rule="evenodd" d="M0 68H8V60H0V68Z" fill="#FF4B2B"/>
<path fill-rule="evenodd" clip-rule="evenodd" d="M20 48H28V40H20V48Z" fill="#FF4B2B"/>
<path opacity="0.3" fill-rule="evenodd" clip-rule="evenodd" d="M40 28H48V20H40V28Z" fill="#FF4B2B"/>
<path fill-rule="evenodd" clip-rule="evenodd" d="M60 8H68V0H60V8Z" fill="#FF4B2B"/>
</svg>
