<svg width="133" height="108" viewBox="0 0 133 108" fill="none" xmlns="http://www.w3.org/2000/svg">
<path fill-rule="evenodd" clip-rule="evenodd" d="M75 108H83V100H75V108Z" fill="#FF4B2B"/>
<path opacity="0.7" fill-rule="evenodd" clip-rule="evenodd" d="M75 83H83V75H75V83Z" fill="#FF4B2B"/>
<path fill-rule="evenodd" clip-rule="evenodd" d="M25 108H33V100H25V108Z" fill="#FF4B2B"/>
<path fill-rule="evenodd" clip-rule="evenodd" d="M25 83H33V75H25V83Z" fill="#FF4B2B"/>
<path opacity="0.3" fill-rule="evenodd" clip-rule="evenodd" d="M25 58H33V50H25V58Z" fill="#FF4B2B"/>
<path fill-rule="evenodd" clip-rule="evenodd" d="M100 108H108V100H100V108Z" fill="#FF4B2B"/>
<path opacity="0.7" fill-rule="evenodd" clip-rule="evenodd" d="M100 83H108V75H100V83Z" fill="#FF4B2B"/>
<path opacity="0.3" fill-rule="evenodd" clip-rule="evenodd" d="M100 58H108V50H100V58Z" fill="#FF4B2B"/>
<path fill-rule="evenodd" clip-rule="evenodd" d="M0 108H8V100H0V108Z" fill="#FF4B2B"/>
<path opacity="0.3" fill-rule="evenodd" clip-rule="evenodd" d="M0 83H8V75H0V83Z" fill="#FF4B2B"/>
<path opacity="0.7" fill-rule="evenodd" clip-rule="evenodd" d="M0 58H8V50H0V58Z" fill="#FF4B2B"/>
<path fill-rule="evenodd" clip-rule="evenodd" d="M0 33H8V25H0V33Z" fill="#FF4B2B"/>
<path opacity="0.3" fill-rule="evenodd" clip-rule="evenodd" d="M0 8H8V0H0V8Z" fill="#FF4B2B"/>
<path opacity="0.3" fill-rule="evenodd" clip-rule="evenodd" d="M125 108H133V100H125V108Z" fill="#FF4B2B"/>
<path fill-rule="evenodd" clip-rule="evenodd" d="M125 83H133V75H125V83Z" fill="#FF4B2B"/>
<path fill-rule="evenodd" clip-rule="evenodd" d="M125 58H133V50H125V58Z" fill="#FF4B2B"/>
<path fill-rule="evenodd" clip-rule="evenodd" d="M125 33H133V25H125V33Z" fill="#FF4B2B"/>
<path opacity="0.3" fill-rule="evenodd" clip-rule="evenodd" d="M50 108H58V100H50V108Z" fill="#FF4B2B"/>
<path fill-rule="evenodd" clip-rule="evenodd" d="M50 83H58V75H50V83Z" fill="#FF4B2B"/>
<path opacity="0.7" fill-rule="evenodd" clip-rule="evenodd" d="M50 58H58V50H50V58Z" fill="#FF4B2B"/>
<path fill-rule="evenodd" clip-rule="evenodd" d="M50 33H58V25H50V33Z" fill="#FF4B2B"/>
</svg>
