<svg width="198" height="108" viewBox="0 0 198 108" fill="none" xmlns="http://www.w3.org/2000/svg">
<path opacity="0.3" fill-rule="evenodd" clip-rule="evenodd" d="M95 108H103V100H95V108Z" fill="#FF4B2B"/>
<path fill-rule="evenodd" clip-rule="evenodd" d="M95 78H103V70H95V78Z" fill="#FF4B2B"/>
<path fill-rule="evenodd" clip-rule="evenodd" d="M155 78H163V70H155V78Z" fill="#FF4B2B"/>
<path opacity="0.7" fill-rule="evenodd" clip-rule="evenodd" d="M135 58H143V50H135V58Z" fill="#FF4B2B"/>
<path fill-rule="evenodd" clip-rule="evenodd" d="M95 48H103V40H95V48Z" fill="#FF4B2B"/>
<path opacity="0.3" fill-rule="evenodd" clip-rule="evenodd" d="M95 18H103V10H95V18Z" fill="#FF4B2B"/>
<path fill-rule="evenodd" clip-rule="evenodd" d="M115 38H123V30H115V38Z" fill="#FF4B2B"/>
<path fill-rule="evenodd" clip-rule="evenodd" d="M35 78H43V70H35V78Z" fill="#FF4B2B"/>
<path opacity="0.3" fill-rule="evenodd" clip-rule="evenodd" d="M55 58H63V50H55V58Z" fill="#FF4B2B"/>
<path opacity="0.7" fill-rule="evenodd" clip-rule="evenodd" d="M75 38H83V30H75V38Z" fill="#FF4B2B"/>
<path fill-rule="evenodd" clip-rule="evenodd" d="M0 23H8V15H0V23Z" fill="#FF4B2B"/>
<path fill-rule="evenodd" clip-rule="evenodd" d="M75.179 8H83.179V0H75.179V8Z" fill="#FF4B2B"/>
<path fill-rule="evenodd" clip-rule="evenodd" d="M50 13H58V5H50V13Z" fill="#FF4B2B"/>
<path opacity="0.3" fill-rule="evenodd" clip-rule="evenodd" d="M25 18H33V10H25V18Z" fill="#FF4B2B"/>
<path opacity="0.7" fill-rule="evenodd" clip-rule="evenodd" d="M190 23H198V15H190V23Z" fill="#FF4B2B"/>
<path fill-rule="evenodd" clip-rule="evenodd" d="M115 8H123V0H115V8Z" fill="#FF4B2B"/>
<path opacity="0.3" fill-rule="evenodd" clip-rule="evenodd" d="M140 13H148V5H140V13Z" fill="#FF4B2B"/>
<path fill-rule="evenodd" clip-rule="evenodd" d="M165 18H173V10H165V18Z" fill="#FF4B2B"/>
</svg>
